<?xml version="1.0"?>


<svg xmlns="http://www.w3.org/2000/svg" xml:space="preserve" width="190.267mm" height="51.5885mm" version="1.1" style="shape-rendering:geometricPrecision; text-rendering:geometricPrecision; image-rendering:optimizeQuality; fill-rule:evenodd; clip-rule:evenodd" viewBox="0 0 190.209 51.5728" xmlns:xlink="http://www.w3.org/1999/xlink" xmlns:xodm="http://www.corel.com/coreldraw/odm/2003">
 <defs>
  
 </defs>
 <g id="Layer_x0020_1">
  <metadata id="CorelCorpID_0Corel-Layer"></metadata>
  <path class="fil0" d="M7.5825 0.4329l-0.5091 0.4034 -0.0639 15.4114c-0.0424,12.843 0,15.4328 0.2334,15.5391 0.2334,0.0848 2.9085,-1.3372 5.0312,-2.6747 0.1699,-0.1063 0.7007,-0.4033 1.1674,-0.6368 0.4674,-0.2548 1.0612,-0.6582 1.3377,-0.9126 0.4666,-0.425 0.4666,-0.446 0.4666,-7.5151 0,-5.7737 0.0426,-7.0688 0.2763,-7.0688 0.3184,0 1.1253,0.4035 2.1649,1.0613 0.3613,0.2338 0.7857,0.4882 0.9556,0.5735 0.1695,0.0848 1.1674,0.6578 2.2289,1.2946 1.0401,0.6369 2.0805,1.2315 2.3349,1.3376 0.2339,0.1062 0.7221,0.382 1.0617,0.6155 0.3607,0.2334 0.7851,0.4883 0.9552,0.573 0.1699,0.0852 1.2312,0.6796 2.3351,1.3375 1.104,0.6582 2.1653,1.2524 2.3348,1.3375 0.17,0.0848 0.616,0.3397 0.9555,0.5731 0.3607,0.2333 0.8279,0.5095 1.0614,0.6154 0.2334,0.1062 0.5945,0.3825 0.8068,0.6159 0.3821,0.4034 0.3607,0.4244 -0.8491,1.1251 -0.6793,0.4031 -1.3585,0.7855 -1.5495,0.8913 -0.1701,0.0851 -0.5944,0.34 -0.9555,0.5733 -0.3398,0.2334 -0.8278,0.5091 -1.0828,0.6154 -0.2334,0.1062 -1.0613,0.5731 -1.8043,1.0189 -0.7425,0.4674 -1.5071,0.8917 -1.6767,0.9764 -0.17,0.0854 -0.5946,0.3398 -0.9555,0.5737 -0.3397,0.2332 -0.7856,0.4881 -0.9551,0.5729 -0.1699,0.0849 -1.2527,0.7007 -2.3988,1.38 -1.1676,0.6792 -2.1231,1.2308 -2.1654,1.2308 -0.0424,0 -1.0189,0.552 -2.165,1.2313 -1.1466,0.6793 -2.2291,1.2952 -2.3989,1.38 -0.1699,0.0848 -0.5096,0.2757 -0.743,0.4245 -0.2334,0.1486 -1.3375,0.7854 -2.4414,1.4223 -1.104,0.6368 -2.2078,1.2738 -2.4412,1.4223 -0.2334,0.1488 -0.5731,0.3187 -0.7432,0.4036 -0.3395,0.1695 -4.3302,2.4835 -4.8824,2.8446 -0.1699,0.1058 -0.7216,0.4031 -1.2312,0.6792 -0.5093,0.2544 -1.0188,0.6369 -1.1251,0.849 -0.1063,0.2122 -0.1697,2.2714 -0.1487,4.6704 0.0637,5.0734 0,4.9459 2.3565,3.5238 0.8278,-0.5095 1.6771,-0.9979 1.8466,-1.0827 0.17,-0.0853 0.6159,-0.3396 0.9556,-0.5734 0.3605,-0.2334 0.7855,-0.4883 0.955,-0.5731 0.17,-0.0848 1.507,-0.8488 2.9508,-1.6981 1.4225,-0.8492 2.6534,-1.5495 2.6962,-1.5495 0.0425,0 1.0189,-0.5521 2.144,-1.2313 1.1461,-0.6792 2.2286,-1.2952 2.3986,-1.38 0.1697,-0.0849 0.6157,-0.3396 0.9552,-0.573 0.3611,-0.2334 0.7857,-0.4883 0.9551,-0.573 0.3825,-0.17 4.4158,-2.5265 4.8825,-2.8237 0.1699,-0.1271 0.4673,-0.2758 0.6368,-0.3606 0.1701,-0.0852 1.2313,-0.6793 2.3355,-1.3376 1.1037,-0.6578 2.1649,-1.2523 2.3351,-1.3374 0.1694,-0.0848 0.6152,-0.3397 0.955,-0.5731 0.3611,-0.2334 0.8279,-0.5092 1.0826,-0.6154 0.2335,-0.1062 1.0615,-0.5731 1.8044,-1.0404 0.7432,-0.4458 1.932,-1.1462 2.6322,-1.5285 4.2247,-2.335 5.7318,-3.9694 6.4959,-7.0687 0.616,-2.4836 -0.4244,-5.9014 -2.2712,-7.5996 -0.6369,-0.5943 -2.7809,-2.0167 -3.694,-2.4412 -0.1696,-0.0853 -0.9336,-0.5307 -1.6768,-0.9979 -0.743,-0.446 -1.571,-0.9127 -1.8044,-1.019 -0.2547,-0.1062 -0.722,-0.382 -1.0827,-0.6154 -0.3395,-0.2337 -0.7855,-0.4882 -0.9555,-0.5733 -0.1694,-0.085 -1.2308,-0.6794 -2.3348,-1.3372 -1.1039,-0.6583 -2.1651,-1.2527 -2.3351,-1.3376 -0.1701,-0.0848 -0.5945,-0.3397 -0.9552,-0.5729 -0.3396,-0.2334 -0.7854,-0.4884 -0.9555,-0.5736 -0.1694,-0.0848 -0.9341,-0.5091 -1.6771,-0.9764 -0.7426,-0.4454 -1.5705,-0.9127 -1.8043,-1.0189 -0.2545,-0.1062 -0.7219,-0.382 -1.0824,-0.6154 -0.3396,-0.2335 -0.7856,-0.4884 -0.9555,-0.5731 -0.1696,-0.0851 -1.1675,-0.6582 -2.2288,-1.2951 -1.0404,-0.6369 -2.0807,-1.2313 -2.3352,-1.3371 -0.2335,-0.1064 -0.7006,-0.3824 -1.0616,-0.5944 -2.1863,-1.4015 -3.6088,-1.6773 -4.5853,-0.8917zm166.1313 7.982l0 0c-0.3814,0.4244 -0.7847,0.9764 -0.8482,1.2308 -0.1282,0.4249 -0.5302,1.55 -0.9764,2.59 -0.2126,0.5305 -0.9764,2.4839 -1.4016,3.6086 -0.1907,0.4672 -0.4033,1.0404 -0.5096,1.2737 -0.2542,0.6159 -1.04,2.6327 -1.3797,3.5453 -0.5095,1.38 -0.9764,2.5899 -1.1671,3.0358 -0.1917,0.4668 -0.892,2.271 -1.4016,3.6086 -0.1906,0.467 -0.4669,1.1462 -0.616,1.5285 -0.1686,0.3606 -0.2969,0.7641 -0.2969,0.8703 0,0.1271 -0.1271,0.4882 -0.2969,0.8279 -0.1698,0.3181 -0.4449,0.9764 -0.616,1.4433 -0.4668,1.2313 -1.018,2.6747 -1.3161,3.3967 -0.148,0.3396 -0.4449,1.0614 -0.6367,1.5919 -0.1905,0.5307 -0.4877,1.2524 -0.6366,1.5924 -0.148,0.3606 -0.3398,0.9551 -0.4033,1.3371l-0.1698 0.6794 6.3265 0 0.4877 -1.2314c0.2553,-0.6579 0.6158,-1.5496 0.765,-1.953 0.6782,-1.8252 1.2306,-3.0991 1.4432,-3.354 0.148,-0.1909 1.4641,-0.2547 5.7315,-0.2123 4.6487,0.0638 5.5408,0.1062 5.6679,0.3825 0.1063,0.1696 0.3178,0.7003 0.489,1.1674 0.1685,0.4668 0.4875,1.2737 0.6782,1.8043 0.1918,0.5307 0.5094,1.3372 0.6795,1.8044 0.5951,1.592 0.3396,1.4857 3.7577,1.5496l3.142 0.0637 -0.1493 -0.7007c-0.0635,-0.382 -0.276,-1.0827 -0.4668,-1.5495 -0.1698,-0.4672 -0.4669,-1.2313 -0.6367,-1.6982 -0.1905,-0.4672 -0.4668,-1.2313 -0.6366,-1.6985 -0.1918,-0.4669 -0.4668,-1.231 -0.6366,-1.6982 -0.192,-0.467 -0.4462,-1.2099 -0.6161,-1.6558 -0.1698,-0.4244 -0.4239,-1.1462 -0.595,-1.5919 -0.4449,-1.2102 -0.8909,-2.3988 -1.2942,-3.4392 -0.1905,-0.5307 -0.4888,-1.316 -0.6588,-1.7619 -0.1684,-0.4244 -0.424,-1.1462 -0.5938,-1.5919 -0.1698,-0.4248 -0.4461,-1.1675 -0.6158,-1.6347 -0.1907,-0.467 -0.6368,-1.6558 -0.9973,-2.6536 -0.3826,-0.9976 -0.8066,-2.1441 -0.9557,-2.5471 -1.4224,-3.6941 -1.8037,-4.6915 -2.1019,-5.5832 -0.4033,-1.1889 -0.8909,-1.9954 -1.6132,-2.6322 -0.424,-0.3821 -0.7857,-0.4674 -1.8684,-0.4884 -1.2306,0 -1.3577,0.0424 -2.0591,0.7432zm2.5687 9.6588l0 0c0.1491,0.2972 0.4252,1.1036 0.6159,1.8043 0.1906,0.7006 0.4888,1.6133 0.6367,2.0167 0.1491,0.4031 0.4252,1.2738 0.5951,1.9106 0.1905,0.6365 0.5938,1.9315 0.8909,2.8442 0.2982,0.9341 0.4668,1.7619 0.3605,1.8681 -0.1052,0.1062 -1.8039,0.1486 -3.7774,0.1272l-3.5879 -0.0634 0.0635 -0.7008c0.0428,-0.382 0.2126,-0.955 0.3826,-1.2736 0.1479,-0.3182 0.2969,-0.7429 0.2969,-0.9549 0,-0.1911 0.0844,-0.5307 0.2126,-0.7431 0.3398,-0.573 1.656,-4.5005 2.1643,-6.4748 0.2981,-1.1252 0.7221,-1.2524 1.1463,-0.3606zm-116.2875 -9.6379l0 0c-0.191,0.1911 -0.2334,30.972 -0.0424,31.6512l0.1272 0.4884 5.0309 0c5.2861,0 7.3667,-0.2335 9.5317,-1.04 1.0403,-0.3824 2.696,-1.2737 3.4176,-1.8048 0.5736,-0.4455 2.4629,-2.356 3.0574,-3.078 0.764,-0.9765 2.4835,-4.3305 2.4835,-4.8611 0,-0.2334 0.1271,-0.7432 0.2971,-1.1252 0.6793,-1.6982 0.573,-7.2597 -0.191,-9.5314 -0.7215,-2.0802 -1.3375,-3.3114 -2.4202,-4.7762 -1.1885,-1.6134 -2.8017,-3.0994 -4.0332,-3.7364 -0.5307,-0.2758 -1.1252,-0.6154 -1.2951,-0.7426 -0.1696,-0.1278 -0.8488,-0.3826 -1.4856,-0.5734 -0.637,-0.1695 -1.5497,-0.446 -2.0169,-0.5945 -0.9764,-0.2759 -12.2062,-0.5516 -12.4609,-0.2759zm9.5953 5.4984l0 0c2.9933,0.4454 4.3303,1.0189 5.7314,2.5046 1.9106,1.9744 2.5897,4.076 2.6112,8.1092 0.0213,2.1866 -0.0639,2.9716 -0.3609,3.8209 -1.3796,3.6936 -2.7811,5.1583 -6.1349,6.2835 -0.9765,0.3186 -1.698,0.4034 -3.2905,0.361l-2.0589 -0.0638 -0.0637 -10.2531c-0.0215,-6.8354 0.021,-10.3804 0.1694,-10.6567 0.2763,-0.5092 0.6794,-0.5092 3.3969,-0.1058zm19.1054 10.5076l0 0 0 16.1335 8.2363 -0.0424 8.2154 -0.0639 0 -5.307 -5.0948 -0.1062 -5.0945 -0.1062 -0.0637 -4.118c-0.0424,-2.8446 0.021,-4.2032 0.1909,-4.3942 0.1909,-0.2339 1.1888,-0.2973 4.8823,-0.2973 2.9509,0 4.6491,-0.0853 4.6702,-0.2124l0 -4.67c-0.0211,-0.1276 -1.8892,-0.2336 -4.8401,-0.2546l-4.8396 -0.0639 0 -7.2175 4.8611 -0.0638c3.2267,-0.0211 4.9673,-0.1273 5.1582,-0.2974 0.2123,-0.1694 0.2762,-0.8064 0.2337,-2.5897l-0.0637 -2.356 -8.2154 -0.064 -8.2363 -0.0422 0 16.1331zm22.2893 0l0 0 0 16.1335 2.8235 0c1.9106,0 2.908,-0.0849 3.078,-0.2549 0.191,-0.191 0.2546,-2.0588 0.2546,-7.1112 0,-4.2457 0.0852,-6.8568 0.2124,-6.8568 0.1062,0 0.2971,0.1276 0.4245,0.2547 0.276,0.361 2.6113,3.6302 3.821,5.3922 0.5307,0.7641 1.1041,1.571 1.2738,1.783 0.17,0.2339 0.8491,1.1889 1.4861,2.123 0.6368,0.9551 1.6558,2.3565 2.2286,3.1419l1.0828 1.422 3.8849 0.0639c3.3754,0.0424 3.885,0 3.7786,-0.2549 -0.0857,-0.191 -1.5495,-2.2074 -3.269,-4.5215 -1.7414,-2.3139 -3.3118,-4.4365 -3.5028,-4.7338 -0.17,-0.2972 -0.5519,-0.7645 -0.807,-1.0613 -0.2547,-0.2972 -0.7005,-0.8707 -0.9549,-1.2952 -0.2763,-0.4034 -1.2528,-1.783 -2.2078,-3.0356 -0.9557,-1.2522 -1.7196,-2.3988 -1.7196,-2.5684 0,-0.1486 0.1271,-0.4249 0.2758,-0.5735 0.1488,-0.1482 0.6368,-0.7426 1.1041,-1.3371 0.4668,-0.573 1.571,-1.9106 2.4413,-2.9719 0.8703,-1.0617 1.9315,-2.3563 2.3565,-2.866 0.4244,-0.5307 1.8253,-2.2501 3.1208,-3.8208 1.294,-1.5708 2.2926,-2.9294 2.2497,-3.0146 -0.0635,-0.085 -1.6987,-0.1695 -3.6515,-0.1695l-3.5662 0 -0.8279 1.1036c-0.4669,0.6159 -1.2522,1.7411 -1.762,2.4837 -0.5093,0.743 -1.0191,1.4646 -1.1251,1.5923 -0.7003,0.8065 -5.498,7.4299 -5.498,7.5785 0,0.1058 -0.191,0.1909 -0.4244,0.1909 -0.4249,0 -0.4249,-0.1486 -0.4249,-6.3471 0,-5.5831 -0.0424,-6.3688 -0.3398,-6.4749 -0.1907,-0.0637 -1.5703,-0.1271 -3.078,-0.1271l-2.7384 0 0 16.1331zm27.9577 -16.006l0 0c-0.2127,0.2125 -0.1905,31.545 0.0207,31.8846 0.1492,0.1913 0.8922,0.2549 3.0356,0.2125l2.845 -0.0639 0.0635 -6.1133c0.0429,-5.6257 0.0857,-6.1138 0.4033,-6.0505 0.2982,0.0638 3.0356,4.1398 3.8849,5.7955 0.1271,0.2335 0.4033,0.7002 0.6367,1.0613 0.2333,0.3398 0.489,0.7856 0.5731,0.9552 0.0857,0.1699 0.4254,0.722 0.743,1.1889 0.3191,0.4881 0.5953,0.9764 0.616,1.0612 0,0.1062 0.3176,0.6159 0.7002,1.1466l0.7002 0.9551 3.5452 0.0639c3.5244,0.0424 3.5451,0.0424 3.4182,-0.3821 -0.1271,-0.4246 -7.2603,-11.2512 -7.5352,-11.463 -0.0856,-0.064 -0.2761,-0.3398 -0.4253,-0.616 -0.2334,-0.4668 -0.2127,-0.5731 0.2127,-0.9127 0.254,-0.2124 0.6145,-0.382 0.7844,-0.382 1.2319,0 3.9278,-2.3777 4.8613,-4.2668 0.9558,-1.9317 1.1463,-2.6748 1.1463,-4.3945 0,-4.5213 -2.2704,-7.6632 -6.7919,-9.3827 -0.8287,-0.3182 -13.1409,-0.5944 -13.4378,-0.2973zm11.8882 5.7319l0 0c2.8657,1.974 2.9293,6.1347 0.1063,8.1729 -0.9556,0.7002 -1.0827,0.7217 -3.1846,0.7852 -1.486,0.0637 -2.2719,0 -2.4831,-0.1696 -0.2555,-0.2124 -0.319,-1.0828 -0.319,-4.7763 0,-2.4626 0.0635,-4.5642 0.1478,-4.628 0.0649,-0.0849 1.1477,-0.1488 2.3782,-0.1488 2.2291,0 2.2497,0 3.3546,0.7647z"></path>
 </g>
</svg>